<?xml version="1.0" encoding="UTF-8"?>
<svg width="18px" height="16px" viewBox="0 0 18 16" version="1.1" xmlns="http://www.w3.org/2000/svg" xmlns:xlink="http://www.w3.org/1999/xlink">
    <!-- Generator: Sketch 62 (91390) - https://sketch.com -->
    <title>Twitter Icon</title>
    <desc>Created with Sketch.</desc>
    <g id="Page-1" stroke="none" stroke-width="1" fill="none" fill-rule="evenodd" opacity="0.800000012">
        <g id="Home-One" transform="translate(-1791.000000, -6878.000000)" fill="#414141">
            <g id="footer" transform="translate(0.000000, 6535.000000)">
                <g id="Group-23">
                    <g id="Group-22">
                        <g id="Group-25" transform="translate(1736.000000, 334.000000)">
                            <g id="icons-/-social-/-twitter" transform="translate(55.000000, 8.000000)">
                                <g id="twitter" transform="translate(0.000000, 1.500000)">
                                    <path d="M17.52675,2.14125 C17.41275,2.016 17.229,1.9845 17.07825,2.06175 C16.9845,2.10975 16.80825,2.17275 16.599,2.235 C16.863,1.884 17.07525,1.491 17.169,1.13775 C17.2095,0.9855 17.15025,0.825 17.02125,0.73425 C16.89225,0.64425 16.7205,0.64425 16.5915,0.73425 C16.38825,0.876 15.40725,1.302 14.787,1.44 C13.38525,0.21225 11.754,0.08475 10.05825,1.07475 C8.67975,1.8795 8.37975,3.516 8.43825,4.5135 C5.283,4.20975 3.32175,2.54325 2.21775,1.164 C2.1405,1.06725 2.016,1.01625 1.899,1.02375 C1.776,1.03275 1.665,1.101 1.602,1.20675 C1.08,2.088 0.93525,3.06225 1.185,4.0245 C1.3215,4.5495 1.56,5.01225 1.83675,5.38725 C1.704,5.322 1.57575,5.24025 1.455,5.14275 C1.344,5.05125 1.18875,5.034 1.0575,5.09475 C0.927,5.157 0.84375,5.289 0.84375,5.43375 C0.84375,7.086 1.87725,8.1885 2.8425,8.7645 C2.6865,8.74575 2.52375,8.71125 2.3595,8.661 C2.2185,8.61825 2.0655,8.661 1.968,8.772 C1.8705,8.88225 1.84725,9.03975 1.908,9.174 C2.45025,10.37325 3.47775,11.19825 4.749,11.4975 C3.639,12.14925 2.15325,12.46875 0.79275,12.312 C0.6165,12.28725 0.4485,12.399 0.393,12.5685 C0.3375,12.738 0.41025,12.924 0.5655,13.011 C2.6295,14.16975 4.4955,14.58375 6.108,14.58375 C8.45475,14.58375 10.266,13.70775 11.3685,12.975 C14.34075,11.0025 16.19325,7.461 15.93525,4.29225 C16.4115,3.9405 17.124,3.291 17.56575,2.59275 C17.65725,2.45175 17.64075,2.26575 17.52675,2.14125 Z" fill-rule="nonzero"></path>
                                </g>
                            </g>
                        </g>
                    </g>
                </g>
            </g>
        </g>
    </g>
</svg>